<svg viewBox="0 0 392 525" xmlns="http://www.w3.org/2000/svg">
  <defs><linearGradient id="amber" x1="0%" y1="0%" x2="85%" y2="100%">
      <stop offset="0%" stop-color="#D4A020"/>
      <stop offset="35%" stop-color="#C65911"/>
      <stop offset="70%" stop-color="#9A3E0A"/>
      <stop offset="100%" stop-color="#C65911"/>
    </linearGradient></defs>
  <g transform="translate(0.000000,525.000000) scale(0.100000,-0.100000)" fill="url(#amber)" fill-rule="evenodd">
    <path d="M1684 5041 c-124 -12 -325 -65 -449 -117 -44 -19 -86 -34 -93 -34
-17 0 -209 -110 -301 -173 -100 -68 -304 -268 -343 -335 -16 -28 -35 -55 -42
-60 -20 -12 -89 -123 -104 -166 -7 -23 -22 -55 -33 -72 -116 -189 -157 -686
-73 -883 9 -20 25 -63 36 -96 54 -164 193 -378 343 -527 204 -204 312 -273
848 -540 497 -248 669 -349 812 -479 338 -309 307 -779 -63 -972 -243 -126
-513 -135 -902 -30 -211 57 -621 322 -700 451 -9 15 -24 33 -34 41 -29 24
-154 234 -193 322 -68 157 -114 344 -138 560 -14 132 -19 149 -32 135 -14 -13
-9 -415 6 -506 29 -186 154 -501 248 -628 262 -352 688 -590 1154 -643 137
-15 427 -7 529 16 590 131 905 667 677 1149 -78 165 -219 335 -347 421 -25 16
-74 51 -109 78 -35 26 -84 59 -110 73 -25 13 -75 43 -111 66 -106 67 -251 148
-267 148 -9 0 -34 12 -57 26 -75 46 -260 156 -306 181 -79 44 -224 149 -316
230 -350 309 -495 738 -378 1118 55 180 127 301 254 430 67 67 49 76 -31 15
-147 -110 -89 42 74 197 308 293 705 403 1112 309 66 -15 128 -32 139 -38 10
-5 40 -16 65 -24 43 -12 86 -37 171 -99 19 -14 56 -39 82 -56 26 -16 57 -46
68 -65 15 -24 29 -34 46 -34 35 0 277 121 346 172 31 24 71 51 89 61 45 25 33
34 -131 97 -74 29 -144 56 -155 61 -46 20 -166 62 -250 88 -49 15 -104 35
-122 44 -18 10 -47 17 -66 17 -19 0 -54 7 -77 15 -23 8 -55 15 -69 15 -15 0
-61 9 -102 20 -84 23 -445 35 -595 21z M2965 4296 c-74 -74 -135 -139 -135 -144 0 -5 48 -76 106 -158 150
-210 144 -197 144 -282 0 -82 -9 -63 158 -357 112 -196 151 -260 206 -335 53
-72 54 -83 26 -211 -32 -141 -52 -162 -160 -166 -36 -1 -87 -5 -115 -8 -77
-11 -139 35 -171 125 -27 77 -65 115 -213 214 -113 75 -174 105 -212 106 -66
0 -184 41 -250 86 -99 67 -151 154 -165 279 -8 64 -13 66 -49 24 -88 -105
-102 -240 -39 -382 20 -45 42 -89 50 -97 7 -8 27 -31 44 -50 17 -19 34 -38 38
-42 25 -27 184 -143 337 -248 286 -196 304 -209 427 -313 321 -269 482 -589
482 -957 0 -478 -260 -881 -721 -1117 -104 -53 -145 -84 -90 -68 57 18 321
146 388 190 419 271 659 672 676 1130 12 339 -86 617 -311 883 -107 126 -109
129 -103 146 3 8 23 18 44 22 65 12 138 59 163 105 13 23 57 194 65 249 6 45
5 48 -73 155 -80 111 -110 162 -243 405 l-74 135 -1 90 c-1 118 1 109 -38 152
-46 52 -186 262 -186 280 0 18 17 51 91 173 98 165 81 162 -96 -14z"/>
  </g>
</svg>